<svg id="visual" viewBox="0 0 1000 540" width="1000" height="540" xmlns="http://www.w3.org/2000/svg" xmlns:xlink="http://www.w3.org/1999/xlink" version="1.1"><rect width="1000" height="540" fill="#001829"></rect><g><g transform="translate(805 123)"><path d="M0 -112L87.6 -69.8L109.2 24.9L48.6 100.9L-48.6 100.9L-109.2 24.9L-87.6 -69.8Z" stroke="#0e9500" fill="none" stroke-width="1"></path></g><g transform="translate(51 298)"><path d="M0 -101L79 -63L98.5 22.5L43.8 91L-43.8 91L-98.5 22.5L-79 -63Z" stroke="#0e9500" fill="none" stroke-width="1"></path></g><g transform="translate(985 366)"><path d="M0 -94L73.5 -58.6L91.6 20.9L40.8 84.7L-40.8 84.7L-91.6 20.9L-73.5 -58.6Z" stroke="#0e9500" fill="none" stroke-width="1"></path></g><g transform="translate(699 428)"><path d="M0 -93L72.7 -58L90.7 20.7L40.4 83.8L-40.4 83.8L-90.7 20.7L-72.7 -58Z" stroke="#0e9500" fill="none" stroke-width="1"></path></g><g transform="translate(343 172)"><path d="M0 -105L82.1 -65.5L102.4 23.4L45.6 94.6L-45.6 94.6L-102.4 23.4L-82.1 -65.5Z" stroke="#0e9500" fill="none" stroke-width="1"></path></g><g transform="translate(74 29)"><path d="M0 -63L49.3 -39.3L61.4 14L27.3 56.8L-27.3 56.8L-61.4 14L-49.3 -39.3Z" stroke="#0e9500" fill="none" stroke-width="1"></path></g><g transform="translate(472 521)"><path d="M0 -16L12.5 -10L15.6 3.6L6.9 14.4L-6.9 14.4L-15.6 3.6L-12.5 -10Z" stroke="#0e9500" fill="none" stroke-width="1"></path></g><g transform="translate(246 478)"><path d="M0 -66L51.6 -41.2L64.3 14.7L28.6 59.5L-28.6 59.5L-64.3 14.7L-51.6 -41.2Z" stroke="#0e9500" fill="none" stroke-width="1"></path></g><g transform="translate(554 72)"><path d="M0 -65L50.8 -40.5L63.4 14.5L28.2 58.6L-28.2 58.6L-63.4 14.5L-50.8 -40.5Z" stroke="#0e9500" fill="none" stroke-width="1"></path></g><g transform="translate(8 528)"><path d="M0 -80L62.5 -49.9L78 17.8L34.7 72.1L-34.7 72.1L-78 17.8L-62.5 -49.9Z" stroke="#0e9500" fill="none" stroke-width="1"></path></g></g></svg>